<svg xmlns="http://www.w3.org/2000/svg" viewBox="0 0 650 300" font-family="system-ui,sans-serif">
<rect width="650" height="300" fill="#fafafa" rx="8"/>
<text x="325" y="24" text-anchor="middle" font-size="16" font-weight="bold" fill="#333">125M: Advantage Grows with Training (preliminary, 2 seeds)</text>

<!-- Y axis: gap 0% to 14%, y: 255 (0%) to 75 (14%) -->
<line x1="80" y1="255" x2="610" y2="255" stroke="#e0e0e0"/>
<text x="72" y="259" text-anchor="end" font-size="11" fill="#666">0%</text>
<line x1="80" y1="229" x2="610" y2="229" stroke="#e0e0e0"/>
<text x="72" y="233" text-anchor="end" font-size="11" fill="#666">2%</text>
<line x1="80" y1="203" x2="610" y2="203" stroke="#e0e0e0"/>
<text x="72" y="207" text-anchor="end" font-size="11" fill="#666">4%</text>
<line x1="80" y1="178" x2="610" y2="178" stroke="#e0e0e0"/>
<text x="72" y="182" text-anchor="end" font-size="11" fill="#666">6%</text>
<line x1="80" y1="152" x2="610" y2="152" stroke="#e0e0e0"/>
<text x="72" y="156" text-anchor="end" font-size="11" fill="#666">8%</text>
<line x1="80" y1="126" x2="610" y2="126" stroke="#e0e0e0"/>
<text x="72" y="130" text-anchor="end" font-size="11" fill="#666">10%</text>
<line x1="80" y1="100" x2="610" y2="100" stroke="#e0e0e0"/>
<text x="72" y="104" text-anchor="end" font-size="11" fill="#666">12%</text>
<line x1="80" y1="75" x2="610" y2="75" stroke="#e0e0e0"/>
<text x="72" y="79" text-anchor="end" font-size="11" fill="#666">14%</text>

<!-- X axis -->
<text x="80" y="275" text-anchor="middle" font-size="11" fill="#555">0</text>
<text x="186" y="275" text-anchor="middle" font-size="11" fill="#555">10k</text>
<text x="292" y="275" text-anchor="middle" font-size="11" fill="#555">20k</text>
<text x="398" y="275" text-anchor="middle" font-size="11" fill="#555">30k</text>
<text x="504" y="275" text-anchor="middle" font-size="11" fill="#555">40k</text>
<text x="610" y="275" text-anchor="middle" font-size="11" fill="#555">50k</text>
<text x="345" y="295" text-anchor="middle" font-size="13" fill="#555">Training Steps</text>
<text x="15" y="165" text-anchor="middle" font-size="13" fill="#555" transform="rotate(-90,15,165)">Quartic vs Baseline (%)</text>

<!-- Scale: x = 80 + step/50000*530, y = 255 - gap%/14*180 -->
<!-- 5k: 1.9% → y=230.5, 10k: 4.2% → y=201, 15k: 4.2% → y=201, 20k: 3.8% → y=206 -->
<!-- 25k: 5.5% → y=184, 30k: 7.0% → y=165, 35k: 8.1% → y=150.7, 40k: 9.9% → y=127.3 -->
<!-- 45k: 12.0% → y=100.6, 50k: 12.9% → y=89 -->

<!-- Fill area -->
<path d="M 133,231 L 186,201 L 239,201 L 292,206 L 345,184 L 398,165 L 451,151 L 504,127 L 557,101 L 610,89 L 610,255 L 133,255 Z" fill="#e74c3c" fill-opacity="0.12"/>

<!-- Gap curve -->
<path d="M 133,231 L 186,201 L 239,201 L 292,206 L 345,184 L 398,165 L 451,151 L 504,127 L 557,101 L 610,89" fill="none" stroke="#e74c3c" stroke-width="2.5"/>

<!-- Data points -->
<circle cx="133" cy="231" r="4" fill="#e74c3c"/>
<circle cx="186" cy="201" r="4" fill="#e74c3c"/>
<circle cx="292" cy="206" r="4" fill="#e74c3c"/>
<circle cx="398" cy="165" r="4" fill="#e74c3c"/>
<circle cx="504" cy="127" r="4" fill="#e74c3c"/>
<circle cx="610" cy="89" r="4" fill="#e74c3c"/>

<!-- Key labels -->
<text x="133" y="224" text-anchor="middle" font-size="9" fill="#e74c3c" font-weight="bold">1.9%</text>
<text x="186" y="194" text-anchor="middle" font-size="9" fill="#e74c3c" font-weight="bold">4.2%</text>
<text x="398" y="158" text-anchor="middle" font-size="9" fill="#e74c3c" font-weight="bold">7.0%</text>
<text x="504" y="120" text-anchor="middle" font-size="9" fill="#e74c3c" font-weight="bold">9.9%</text>
<text x="610" y="82" text-anchor="middle" font-size="11" fill="#e74c3c" font-weight="bold">12.9%</text>

<!-- Annotation -->
<text x="480" y="75" font-size="11" fill="#c0392b" font-style="italic">models not converged</text>
</svg>