<svg xmlns="http://www.w3.org/2000/svg" viewBox="0 0 600 280" font-family="system-ui,sans-serif">
<rect width="600" height="280" fill="#fafafa" rx="8"/>
<text x="300" y="24" text-anchor="middle" font-size="16" font-weight="bold" fill="#333">125M: Final Performance at 50k Steps</text>

<!-- Bars -->
<!-- Baseline s42: 3.549 -->
<rect x="60" y="110" width="100" height="130" fill="#888" rx="4" opacity="0.8"/>
<text x="110" y="105" text-anchor="middle" font-size="13" fill="#888" font-weight="bold">3.549</text>
<text x="110" y="258" text-anchor="middle" font-size="10" fill="#555">Baseline</text>
<text x="110" y="270" text-anchor="middle" font-size="9" fill="#888">seed 42</text>

<!-- Baseline s137: 3.345 -->
<rect x="170" y="89" width="100" height="151" fill="#888" rx="4" opacity="0.6"/>
<text x="220" y="84" text-anchor="middle" font-size="13" fill="#888" font-weight="bold">3.345</text>
<text x="220" y="258" text-anchor="middle" font-size="10" fill="#555">Baseline</text>
<text x="220" y="270" text-anchor="middle" font-size="9" fill="#888">seed 137</text>

<!-- Quartic s42: 2.937 -->
<rect x="320" y="47" width="100" height="193" fill="#e74c3c" rx="4" opacity="0.8"/>
<text x="370" y="42" text-anchor="middle" font-size="13" fill="#e74c3c" font-weight="bold">2.937</text>
<text x="370" y="258" text-anchor="middle" font-size="10" fill="#555">Quartic</text>
<text x="370" y="270" text-anchor="middle" font-size="9" fill="#e74c3c">seed 42</text>

<!-- Quartic s137: 3.065 -->
<rect x="430" y="60" width="100" height="180" fill="#e74c3c" rx="4" opacity="0.6"/>
<text x="480" y="55" text-anchor="middle" font-size="13" fill="#e74c3c" font-weight="bold">3.065</text>
<text x="480" y="258" text-anchor="middle" font-size="10" fill="#555">Quartic</text>
<text x="480" y="270" text-anchor="middle" font-size="9" fill="#e74c3c">seed 137</text>

<!-- Delta annotations -->
<line x1="110" y1="120" x2="370" y2="57" stroke="#333" stroke-width="1" stroke-dasharray="4,3"/>
<text x="240" y="78" text-anchor="middle" font-size="12" fill="#333" font-weight="bold">-17.2%</text>

<line x1="220" y1="99" x2="480" y2="70" stroke="#333" stroke-width="1" stroke-dasharray="4,3"/>
<text x="350" y="90" text-anchor="middle" font-size="12" fill="#333" font-weight="bold">-8.4%</text>

<!-- Note -->
<text x="300" y="22" text-anchor="middle" font-size="10" fill="#999">(lower is better)</text>
</svg>