<svg xmlns="http://www.w3.org/2000/svg" viewBox="0 0 650 300" font-family="system-ui,sans-serif">
<rect width="650" height="300" fill="#fafafa" rx="8"/>
<text x="325" y="24" text-anchor="middle" font-size="16" font-weight="bold" fill="#333">125M: Advantage Grows with Training</text>
<text x="325" y="42" text-anchor="middle" font-size="12" fill="#888">Mean of 2 matched-seed pairs (seeds 42, 137)</text>

<!-- Y axis: gap % from 0 to 14 -->
<line x1="80" y1="255" x2="610" y2="255" stroke="#e0e0e0"/>
<text x="72" y="259" text-anchor="end" font-size="11" fill="#666">0%</text>
<line x1="80" y1="219" x2="610" y2="219" stroke="#e0e0e0"/>
<text x="72" y="223" text-anchor="end" font-size="11" fill="#666">2%</text>
<line x1="80" y1="183" x2="610" y2="183" stroke="#e0e0e0"/>
<text x="72" y="187" text-anchor="end" font-size="11" fill="#666">4%</text>
<line x1="80" y1="147" x2="610" y2="147" stroke="#e0e0e0"/>
<text x="72" y="151" text-anchor="end" font-size="11" fill="#666">6%</text>
<line x1="80" y1="111" x2="610" y2="111" stroke="#e0e0e0"/>
<text x="72" y="115" text-anchor="end" font-size="11" fill="#666">8%</text>
<line x1="80" y1="75" x2="610" y2="75" stroke="#e0e0e0"/>
<text x="72" y="79" text-anchor="end" font-size="11" fill="#666">10%</text>

<!-- X axis -->
<text x="80" y="275" text-anchor="middle" font-size="11" fill="#555">0</text>
<text x="186" y="275" text-anchor="middle" font-size="11" fill="#555">10k</text>
<text x="292" y="275" text-anchor="middle" font-size="11" fill="#555">20k</text>
<text x="398" y="275" text-anchor="middle" font-size="11" fill="#555">30k</text>
<text x="504" y="275" text-anchor="middle" font-size="11" fill="#555">40k</text>
<text x="610" y="275" text-anchor="middle" font-size="11" fill="#555">50k</text>

<text x="345" y="295" text-anchor="middle" font-size="13" fill="#555">Training Steps</text>
<text x="15" y="165" text-anchor="middle" font-size="13" fill="#555" transform="rotate(-90,15,165)">Gap vs Baseline (%)</text>

<!-- Gap curve: x = 80 + step/50000*530, y = 255 - gap%/14*180 -->
<!-- Data: 5k=1.9%, 10k=4.2%, 15k=4.2%, 20k=3.8%, 25k=5.5%, 30k=7.0%, 35k=8.1%, 40k=9.9%, 45k=12.0%, 50k=12.9% -->
<path d="M 133,231 L 186,201 L 239,201 L 292,206 L 345,184 L 398,165 L 451,151 L 504,128 L 557,101 L 610,89" fill="none" stroke="#e74c3c" stroke-width="3"/>

<!-- Fill area under curve -->
<path d="M 133,231 L 186,201 L 239,201 L 292,206 L 345,184 L 398,165 L 451,151 L 504,128 L 557,101 L 610,89 L 610,255 L 133,255 Z" fill="#e74c3c" fill-opacity="0.1"/>

<!-- Data points with labels -->
<circle cx="133" cy="231" r="5" fill="#e74c3c"/>
<text x="133" y="225" text-anchor="middle" font-size="9" fill="#e74c3c" font-weight="bold">1.9%</text>

<circle cx="186" cy="201" r="5" fill="#e74c3c"/>
<text x="186" y="195" text-anchor="middle" font-size="9" fill="#e74c3c" font-weight="bold">4.2%</text>

<circle cx="292" cy="206" r="5" fill="#e74c3c"/>
<text x="292" y="200" text-anchor="middle" font-size="9" fill="#e74c3c" font-weight="bold">3.8%</text>

<circle cx="398" cy="165" r="5" fill="#e74c3c"/>
<text x="398" y="159" text-anchor="middle" font-size="9" fill="#e74c3c" font-weight="bold">7.0%</text>

<circle cx="504" cy="128" r="5" fill="#e74c3c"/>
<text x="504" y="122" text-anchor="middle" font-size="9" fill="#e74c3c" font-weight="bold">9.9%</text>

<circle cx="610" cy="89" r="5" fill="#e74c3c"/>
<text x="597" y="82" text-anchor="end" font-size="11" fill="#e74c3c" font-weight="bold">12.9%</text>

<!-- Trend arrow -->
<text x="500" y="75" font-size="12" fill="#c0392b" font-weight="bold">gap still widening</text>
</svg>