<svg xmlns="http://www.w3.org/2000/svg" viewBox="0 0 800 400" font-family="system-ui,sans-serif">
<rect width="800" height="400" fill="#fafafa" rx="8"/>
<text x="400" y="24" text-anchor="middle" font-size="16" font-weight="bold" fill="#333">Learning Curves: Baseline vs Quartic Window (5 seeds, ±1σ)</text>
<line x1="70" y1="322" x2="770" y2="322" stroke="#e0e0e0"/>
<text x="62" y="326" text-anchor="end" font-size="12" fill="#666">0.90</text>
<line x1="70" y1="265" x2="770" y2="265" stroke="#e0e0e0"/>
<text x="62" y="269" text-anchor="end" font-size="12" fill="#666">1.00</text>
<line x1="70" y1="209" x2="770" y2="209" stroke="#e0e0e0"/>
<text x="62" y="213" text-anchor="end" font-size="12" fill="#666">1.10</text>
<line x1="70" y1="153" x2="770" y2="153" stroke="#e0e0e0"/>
<text x="62" y="157" text-anchor="end" font-size="12" fill="#666">1.20</text>
<line x1="70" y1="96" x2="770" y2="96" stroke="#e0e0e0"/>
<text x="62" y="100" text-anchor="end" font-size="12" fill="#666">1.30</text>
<line x1="70" y1="40" x2="70" y2="350" stroke="#e0e0e0"/>
<text x="70" y="368" text-anchor="middle" font-size="12" fill="#666">0k</text>
<line x1="245" y1="40" x2="245" y2="350" stroke="#e0e0e0"/>
<text x="245" y="368" text-anchor="middle" font-size="12" fill="#666">5k</text>
<line x1="420" y1="40" x2="420" y2="350" stroke="#e0e0e0"/>
<text x="420" y="368" text-anchor="middle" font-size="12" fill="#666">10k</text>
<line x1="595" y1="40" x2="595" y2="350" stroke="#e0e0e0"/>
<text x="595" y="368" text-anchor="middle" font-size="12" fill="#666">15k</text>
<line x1="770" y1="40" x2="770" y2="350" stroke="#e0e0e0"/>
<text x="770" y="368" text-anchor="middle" font-size="12" fill="#666">20k</text>
<text x="400" y="395" text-anchor="middle" font-size="13" fill="#555">Training Steps</text>
<text x="15" y="200" text-anchor="middle" font-size="13" fill="#555" transform="rotate(-90,15,200)">val_bpb</text>
<path d="M 105.0,71.8 L 122.5,120.0 L 140.0,140.4 L 157.5,156.2 L 175.0,168.0 L 192.5,184.6 L 210.0,191.4 L 227.5,196.5 L 245.0,203.8 L 262.5,217.2 L 280.0,218.9 L 297.5,227.1 L 315.0,231.6 L 332.5,234.2 L 350.0,243.3 L 367.5,245.7 L 385.0,248.2 L 402.5,252.8 L 420.0,260.3 L 437.5,256.6 L 455.0,267.0 L 472.5,268.5 L 490.0,274.5 L 507.5,287.1 L 525.0,290.9 L 542.5,287.4 L 560.0,294.0 L 577.5,296.7 L 595.0,304.0 L 612.5,298.1 L 630.0,302.3 L 647.5,307.8 L 665.0,308.8 L 682.5,308.9 L 700.0,312.2 L 717.5,319.9 L 735.0,319.6 L 752.5,318.8 L 770.0,317.5 L 770.0,326.0 L 752.5,329.1 L 735.0,324.7 L 717.5,326.4 L 700.0,326.0 L 682.5,322.2 L 665.0,326.2 L 647.5,321.6 L 630.0,313.1 L 612.5,308.2 L 595.0,313.4 L 577.5,308.3 L 560.0,300.9 L 542.5,304.3 L 525.0,294.6 L 507.5,289.6 L 490.0,287.5 L 472.5,287.4 L 455.0,280.4 L 437.5,281.3 L 420.0,272.6 L 402.5,266.2 L 385.0,265.0 L 367.5,263.7 L 350.0,251.4 L 332.5,248.8 L 315.0,242.7 L 297.5,241.9 L 280.0,231.3 L 262.5,225.6 L 245.0,214.6 L 227.5,205.7 L 210.0,202.4 L 192.5,193.0 L 175.0,178.4 L 157.5,167.9 L 140.0,146.9 L 122.5,128.3 L 105.0,84.4 Z" fill="#888" opacity="0.12"/>
<path d="M 105.0,84.7 L 122.5,132.3 L 140.0,147.7 L 157.5,165.9 L 175.0,172.9 L 192.5,192.5 L 210.0,200.6 L 227.5,206.0 L 245.0,217.8 L 262.5,230.8 L 280.0,233.9 L 297.5,242.7 L 315.0,247.4 L 332.5,248.1 L 350.0,257.1 L 367.5,262.3 L 385.0,264.7 L 402.5,268.8 L 420.0,275.7 L 437.5,270.9 L 455.0,277.9 L 472.5,282.8 L 490.0,286.4 L 507.5,297.0 L 525.0,297.6 L 542.5,296.8 L 560.0,305.2 L 577.5,307.2 L 595.0,312.3 L 612.5,306.5 L 630.0,313.6 L 647.5,318.3 L 665.0,318.2 L 682.5,318.7 L 700.0,321.3 L 717.5,327.4 L 735.0,327.4 L 752.5,324.7 L 770.0,326.2 L 770.0,332.5 L 752.5,338.1 L 735.0,332.4 L 717.5,334.5 L 700.0,332.3 L 682.5,328.8 L 665.0,333.3 L 647.5,329.0 L 630.0,319.5 L 612.5,318.2 L 595.0,322.0 L 577.5,317.3 L 560.0,308.0 L 542.5,313.6 L 525.0,304.9 L 507.5,300.4 L 490.0,295.8 L 472.5,296.0 L 455.0,290.6 L 437.5,291.0 L 420.0,280.6 L 402.5,277.5 L 385.0,276.0 L 367.5,274.5 L 350.0,266.6 L 332.5,262.3 L 315.0,256.0 L 297.5,253.3 L 280.0,247.7 L 262.5,239.6 L 245.0,225.9 L 227.5,216.2 L 210.0,211.9 L 192.5,202.5 L 175.0,190.0 L 157.5,175.7 L 140.0,157.7 L 122.5,135.4 L 105.0,93.8 Z" fill="#e74c3c" opacity="0.12"/>
<path d="M 105.0,78.1 L 122.5,124.1 L 140.0,143.6 L 157.5,162.1 L 175.0,173.2 L 192.5,188.8 L 210.0,196.9 L 227.5,201.1 L 245.0,209.2 L 262.5,221.4 L 280.0,225.1 L 297.5,234.5 L 315.0,237.1 L 332.5,241.5 L 350.0,247.4 L 367.5,254.7 L 385.0,256.6 L 402.5,259.5 L 420.0,266.4 L 437.5,268.9 L 455.0,273.7 L 472.5,277.9 L 490.0,281.0 L 507.5,288.3 L 525.0,292.8 L 542.5,295.9 L 560.0,297.5 L 577.5,302.5 L 595.0,308.7 L 612.5,303.1 L 630.0,307.7 L 647.5,314.7 L 665.0,317.5 L 682.5,315.5 L 700.0,319.1 L 717.5,323.2 L 735.0,322.1 L 752.5,324.0 L 770.0,321.7" fill="none" stroke="#888" stroke-width="2.5"/>
<path d="M 105.0,89.3 L 122.5,133.8 L 140.0,152.7 L 157.5,170.8 L 175.0,181.4 L 192.5,197.5 L 210.0,206.2 L 227.5,211.1 L 245.0,221.9 L 262.5,235.2 L 280.0,240.8 L 297.5,248.0 L 315.0,251.7 L 332.5,255.2 L 350.0,261.8 L 367.5,268.4 L 385.0,270.4 L 402.5,273.2 L 420.0,278.2 L 437.5,281.0 L 455.0,284.3 L 472.5,289.4 L 490.0,291.1 L 507.5,298.7 L 525.0,301.3 L 542.5,305.2 L 560.0,306.6 L 577.5,312.3 L 595.0,317.2 L 612.5,312.4 L 630.0,316.6 L 647.5,323.6 L 665.0,325.8 L 682.5,323.8 L 700.0,326.8 L 717.5,330.9 L 735.0,329.9 L 752.5,331.4 L 770.0,329.4" fill="none" stroke="#e74c3c" stroke-width="2.5"/>
<rect x="85" y="55" width="230" height="55" fill="white" stroke="#ddd" rx="4"/>
<line x1="95" y1="73" x2="120" y2="73" stroke="#888" stroke-width="2.5"/>
<text x="127" y="77" font-size="13" fill="#333">baseline (0.9002 ± 0.007)</text>
<line x1="95" y1="93" x2="120" y2="93" stroke="#e74c3c" stroke-width="2.5"/>
<text x="127" y="97" font-size="13" fill="#333">power_4.0 (0.8866 ± 0.006)</text>
</svg>